<svg xmlns="http://www.w3.org/2000/svg" version="1.1" viewBox="0 0 859 1000" width="859" height="1000"><path d="M99.59 748.79Q109.49 756 120.39 761.86 121.83 762.63 124.77 763.2M209.44 812.49Q210.69 814.28 211.67 814.86 239.82 831.34 268.05 847.7 269.14 848.33 270.41 848.01M483.41 909.34Q485.01 909.56 487.24 908.27 503.92 898.57 520.59 888.87 521.1 888.57 521.61 887.19M626.2 826.33Q628 826.41 629.83 825.35 651.36 812.81 672.88 800.21A1.89 1.63 4.2 0 0 673.19 799.98L676.26 797.05M750.06 754.29Q761.51 749.92 771.36 741.97M248.83 728.34Q246.67 727.88 245 727.03 235.53 722.18 225.82 715.11M727.71 714.24 727.65 713.28A1.85 1.72-63.6 0 0 727.43 712.54Q721.75 702.18 715.81 691.96 715.34 691.14 714.35 690.99M382.1 805.57Q379.88 805.06 377.15 803.6 367.46 798.41 360.04 792.83M451.51 887.07Q446.4 890.73 443.38 891.9 439.95 893.23 435.94 892.67 433.25 892.3 428.9 890.03 422.12 886.51 415.31 883.32M395 871.49C383.04 863.18 372.68 857.39 356.61 848.15Q355.04 847.25 353.7 847.11M157.05 733.37Q151.51 729.27 145.86 727.01M755.27 713.05Q754.42 713.3 753.32 712.57A.46.41 5.1 0 1 753.18 712.42Q734.26 679.27 715.39 646.08 714.47 644.46 714.4 640.53M159.69 676.73Q159.33 676.61 159.36 677.26A1 .97-66.6 0 0 159.57 677.81Q173.9 696.27 188.33 709.68 190.57 711.77 209.95 729.3 220.89 739.19 233.6 754.4 241.53 763.89 249.61 776.72 249.8 777.02 254.24 785.2 256.81 789.93 260.15 793.28M210.81 764.34Q210.59 764.01 210.62 763.6A.7.66-66.2 0 0 210.45 763.12Q201.29 752.92 195.23 747.27C190.7 743.05 184.58 737.35 179.6 733.02Q167.67 722.64 156.06 709.94 140.31 692.71 128.52 672.27C127.54 670.57 127.32 669.06 126.19 667.53Q125.69 666.84 124.39 663.98 122.71 660.29 120.34 654.63 119.97 653.75 118.09 652.62" stroke-width="2" fill="none" stroke-linecap="butt" stroke="#b2966c" data-c-stroke="b2966c" stroke-opacity="0"/><path fill="#6477c2" d="M 859.00 250.20 L 859.00 749.99 L 430.30 1000.00 L 429.04 1000.00 L 0.88 750.69 A 1.25 1.24 -75.0 0 1 0.26 749.61 L 0.26 251.02 A 1.39 1.35 -15.4 0 1 0.95 249.84 L 428.42 0.92 A 2.50 2.48 -44.8 0 1 430.91 0.92 L 859.00 250.20 Z M 99.59 748.79 Q 109.49 756.00 120.39 761.86 Q 121.83 762.63 124.77 763.20 L 209.44 812.49 Q 210.69 814.28 211.67 814.86 Q 239.82 831.34 268.05 847.70 Q 269.14 848.33 270.41 848.01 L 429.22 940.51 A 0.86 0.86 0.0 0 0 430.08 940.51 L 483.41 909.34 Q 485.01 909.56 487.24 908.27 Q 503.92 898.57 520.59 888.87 Q 521.10 888.57 521.61 887.19 L 626.20 826.33 Q 628.00 826.41 629.83 825.35 Q 651.36 812.81 672.88 800.21 A 1.89 1.63 4.2 0 0 673.19 799.98 L 676.26 797.05 L 750.06 754.29 Q 761.51 749.92 771.36 741.97 L 807.27 720.95 A 0.90 0.87 -15.7 0 0 807.71 720.19 L 807.71 280.46 A 0.70 0.67 15.4 0 0 807.36 279.87 L 430.13 60.24 A 0.91 0.91 0.0 0 0 429.21 60.24 L 52.42 279.63 A 1.03 1.03 0.0 0 0 51.91 280.52 L 51.91 720.53 A 0.46 0.45 -75.6 0 0 52.14 720.93 L 99.59 748.79 Z" data-c-fill="6477c2"/><rect fill="#6477c2" x="-212.11" y="-25.07" transform="rotate(-29.9 557.46 -400.27)" width="424.22" height="50.14" rx="17.01" data-c-fill="6477c2"/><path fill="#6477c2" d="M 755.27 713.05 Q 754.42 713.30 753.32 712.57 A 0.46 0.41 5.1 0 1 753.18 712.42 Q 734.26 679.27 715.39 646.08 Q 714.47 644.46 714.40 640.53 L 714.40 300.49 A 3.20 2.90 -38.5 0 1 714.56 299.52 Q 717.42 290.73 725.12 287.41 Q 729.26 285.61 736.08 286.00 C 740.76 286.27 748.79 285.11 753.78 287.14 Q 761.45 290.25 764.66 298.30 A 6.92 6.82 34.4 0 1 765.16 300.87 L 765.16 700.04 A 3.00 2.81 54.4 0 1 765.06 700.80 Q 763.01 708.95 755.27 713.05 Z" data-c-fill="6477c2"/><path fill="#ffb416" d="M248.83 728.34Q246.67 727.88 245 727.03 235.53 722.18 225.82 715.11 227.14 709.58 230.89 707.77 232.69 706.9 234.78 706.56 235.98 706.36 237.22 705.81 239.75 704.69 239.83 704.64A2.23 2.17 26.4 0 1 240.67 704.37C242.59 704.17 243.31 702.88 245.01 702.47Q248.93 701.53 250.52 700.05A1.88 1.81-70 0 1 251.44 699.6Q253.63 699.21 256.23 697.73 261.83 694.55 264.54 693.18 267.22 691.83 270.01 689.73 271.61 688.53 275.36 686.14 279.49 683.5 289.19 673.99 293.49 669.78 300.39 657.63A5.49 5.41-22.8 0 0 300.9 656.41Q302.18 651.8 302.84 650.83 303.77 649.48 303.76 648.29C303.75 646.09 304.54 644.48 305.05 642.25A1.71 1.71 0 0 0 304.98 641.31Q304.39 639.7 305.31 638.22A1.02 1.02 0 0 0 305.43 637.47Q304.82 634.68 305.4 630.85A.62.61-76.8 0 0 304.98 630.17C294.19 626.82 282.52 623.1 271.73 620.06Q231.63 608.78 190.24 596.78C184.21 595.03 176 590.31 176.57 583.09Q177.23 574.79 183.02 570.83 184.45 569.85 190.07 569.23A.81.77-38.3 0 1 190.4 569.26L298.28 600.52A.33.33 0 0 0 298.67 600.06C293.9 590.37 288.95 580.73 282.88 572.62Q278.41 566.65 269.68 556.63 267.19 553.78 261 544.57A4.86 4.6 5.8 0 0 260.19 543.63Q252.13 536.34 244.24 543.05A1.39 1.38-35.3 0 1 242.14 542.7C239.97 538.97 238.71 534.65 236.76 530.66Q229.5 515.78 217.16 504.86 187.18 478.32 148.99 467.7 147.4 467.26 147.03 466.6 146.5 465.66 147.47 464.44 150.59 460.51 153.97 455.62A.68.67 27.3 0 0 153.64 454.6L143.19 450.86A.82.8 80.8 0 1 142.84 450.6Q141.87 449.26 142.99 447.72 146.86 442.36 152.37 437.6 164.72 426.94 180.49 420.57A2.01 1.99-11.2 0 0 181.74 418.72Q181.75 415.44 182.2 411.97 184.05 397.76 187.92 381.88 194.89 353.23 205.17 326.18 206.43 322.88 208.46 319.85A1.22 1.22 0 0 1 209.48 319.3Q210.81 319.3 212.38 320.63C222.92 329.56 230.95 339.65 239.52 351.54Q254.92 372.92 266.67 397.59A2.94 2.92 79.8 0 0 269.05 399.25Q291.03 401.25 313.14 409.58A1.43 1.42-50 0 0 314.37 409.47Q345.95 390.41 381.92 377.72 391.56 374.33 400.17 372.4 401.63 372.07 402.22 372.07A1.72 1.72 0 0 1 403.94 373.92Q402.97 386.69 399.78 401.55 393.05 432.9 384.84 459.88 383.32 464.87 381.41 470.13A2.02 2 34.1 0 0 381.81 472.16Q394.38 486.24 402.57 503.16A1.05 1.04-15.9 0 1 401.74 504.65L391.69 505.72A.62.61 75.9 0 0 391.19 506.56L393.78 513.13A3.35 3.19-58.5 0 1 393.99 514.11L394.16 517.79A.88.87-88.9 0 1 393.22 518.7Q391.21 518.54 389.47 518.74A5.44 5.28-45.9 0 1 388.49 518.77Q377.38 518.26 374 518.56 365.25 519.34 347.4 521.72 333.47 523.58 322.86 526.95 307.12 531.94 290.89 539.71A1.02 1.02 0 0 0 290.57 541.31C295.51 546.83 299.69 551.75 303.95 558.14Q307.82 563.94 311.5 569.14 317.71 577.95 323.16 591.69 323.65 592.91 324.14 593.94 324.75 595.19 325.07 596.23 328.05 606.01 328.93 609.53 330.8 617.05 331.54 627.99 331.54 628.1 331.91 629.37 332.29 630.74 331.86 632 331.8 632.18 331.52 632.92A3.29 3.2 56 0 0 331.3 634.15Q331.39 641.96 329.95 647.25 327.51 656.24 325.23 663.67 324.19 667.05 322.73 670.21 322.11 671.55 320.29 674.11A4.74 4.66-15.5 0 0 319.8 674.96Q318 678.93 315.44 682.2 306.99 693 300.93 698.2 291.34 706.45 285.12 710.4 280.92 713.06 271.19 718.46 267.64 720.43 264.57 721.38A1.69 1.56 20.8 0 0 264.32 721.48L258.57 724.62A2.67 2.67 0 0 1 257.07 724.95Q256.28 724.88 254.88 725.91A3.05 3-66 0 1 253.41 726.49Q250.39 726.83 248.83 728.34ZM248.58 408.64C240.84 387.49 229.21 368.54 215.59 350.44A.7.7 0 0 0 214.36 350.67Q206.62 377.97 202.03 404.29A7.29 7.26-40.5 0 0 201.92 405.66Q201.98 410.26 200.79 414.82A.86.86 0 0 0 201.87 415.87Q224.58 409.03 248.21 409.17A.4.39 80.1 0 0 248.58 408.64ZM365.05 458.61A.49.49 0 0 0 365.84 458.44Q368.55 451.59 371.49 441.78 378.21 419.28 383.43 397.38A.62.62 0 0 0 382.57 396.67C374.45 400.43 367.61 403.5 359.54 408.03Q340.33 418.83 325.49 428.79A.88.88 0 0 0 325.6 430.32C340.23 437.3 353.36 447.28 365.05 458.61ZM198.96 452.03Q215.57 458.01 228.93 467.31 237.99 473.61 245.73 484.97 250.27 491.63 253.63 503.1 256.73 513.68 257.83 522.58A3.83 3.76 26 0 0 258.39 524.16Q261.36 528.86 266.25 529.57A2.79 2.78-69.5 0 0 269 528.31Q273.41 521.44 278.66 514.69 284.77 506.85 290.04 502.5C307.35 488.22 326.21 486.3 347.84 487.27A.42.42 0 0 0 348.13 486.53Q332.79 473.7 314.05 463.92C289.23 450.97 262.02 445.66 234.15 446.59Q227.73 446.8 218.36 447.59 209.37 448.34 202.68 449.67 200.16 450.16 198.83 451.27A.45.44 35.5 0 0 198.96 452.03ZM714.4 640.53Q714.47 644.46 715.39 646.08 734.26 679.27 753.18 712.42A.46.41 5.1 0 0 753.32 712.57Q754.42 713.3 755.27 713.05L760.77 721.75A.61.6 39.7 0 1 760.82 722.25Q760.74 722.49 760.73 722.52A1.1 1.1 0 0 0 761.3 723.71Q762 724.08 762.13 724.94A1.9 1.89-71.5 0 0 762.65 725.99Q765.14 728.51 765.75 731.53A1.74 1.7 16.2 0 0 766.25 732.42Q766.66 732.81 767.66 734.32 770.36 738.43 771.36 741.97 761.51 749.92 750.06 754.29 749.55 753.02 748.61 751.64 747.26 749.68 744.6 744.56 743.09 741.65 741.68 739.54 739.44 736.16 738.97 734.35A2.81 2.81 0 0 0 738.48 733.33Q734.79 728.5 732.1 723.5C731.72 722.81 731.94 721.81 731.43 721.3Q727.86 717.77 727.71 714.24L727.65 713.28A1.85 1.72-63.6 0 0 727.43 712.54Q721.75 702.18 715.81 691.96 715.34 691.14 714.35 690.99 713.45 690.7 713.22 690.28 706.37 677.79 698.58 664.56 697.71 663.08 696.6 660.85 695.11 657.87 694.58 657.16 692.71 654.59 691.75 652.57 690.14 649.2 689.21 647.83 687.4 645.14 682.91 636.54A3.5 3.49 87.2 0 0 681.16 634.95C673.5 631.75 667.13 629.52 658.74 628.22Q636.79 624.84 614.37 627.9 597.5 630.2 582.58 637.6 582.14 637.82 570.84 643.55 559.38 649.37 542.2 652.85 541.13 653.06 528.31 655.11C515.72 657.12 506.89 656.81 490.75 656.73A2.14 2.04-31.4 0 1 489.97 656.56L488.9 656.09A3.38 3.32-33 0 0 487.58 655.82C485.35 655.83 481.52 656.13 478.69 654.76Q476.84 653.87 474.36 654.19A1.52 1.51 62.6 0 1 473.14 653.8C471.64 652.37 469.08 652.19 467.97 654.27Q465.88 658.16 463.84 661.02A3.3.2-67.8 0 0 462.84 663.1Q462.65 663.53 461.61 665.37 421.15 736.54 393.67 784.81A4.92 4.24-14.2 0 1 393.15 785.55Q391.61 787.34 390.76 789.99A1.79 1.71 70.3 0 1 390.6 790.35Q388.36 794.26 384.59 800.45 384.57 800.49 384.58 800.67 384.58 800.84 384.58 801.02A.61.6-30.5 0 1 384.5 801.32L382.1 805.57Q379.88 805.06 377.15 803.6 367.46 798.41 360.04 792.83L363.5 787.53A1.38 1.34-28.2 0 0 363.73 786.81Q363.78 785.68 364.73 784.98A1.08 1.05-15.6 0 0 365.16 784.24Q365.21 783.78 365.44 783.44 367.96 779.72 369.24 777.18 370.81 774.07 372.76 770.74 384.39 750.89 395.58 731.02 397.75 727.17 408.99 707.42 453.08 629.97 494.39 557.14C500.33 546.68 503.66 535.47 504.28 523.5 504.45 520.19 504.79 516.65 504.79 513.49Q504.79 477.43 504.8 417.11A.76.76 0 0 0 504.07 416.35Q502.98 416.3 502.26 415.69C501.18 414.78 500.83 414.92 499.57 414.89A2.16 2.05-29.8 0 1 498.67 414.67Q490.13 410.47 489.09 409.41C485.37 405.64 482.12 402.86 479.66 398.56 474.86 390.14 473.2 379.67 475.7 369.95Q480.31 352.02 498.3 344.24A3.41 3.23-57.9 0 1 499.27 343.99C501.2 343.82 502.87 343.28 504.94 343.29Q581.53 343.4 654.99 343.28A3.21 3.19-34.4 0 1 656.13 343.49Q657.31 343.92 658.79 343.97A2.98 2.91-31 0 1 659.93 344.24Q679.48 353.13 682.49 371.98 684.79 386.41 678.76 397.84 672.63 409.45 658.96 414.66C658.09 414.99 657.61 414.78 656.9 414.88A.69.69 0 0 0 656.31 415.56Q656.39 497.45 656.31 510.6C656.23 523.71 657.54 534.93 661.66 546.59Q663.07 550.59 668.45 560.08 670.08 562.95 709.74 632.76 711.27 635.46 712.47 637.09A1.94 1.87-69.4 0 1 712.82 637.9Q713.11 639.39 714.4 640.53ZM579.11 391.7Q648.31 391.69 649.89 391.71A.54.38-46.2 0 0 650.08 391.67Q655.53 389.5 657.8 384.87C660.81 378.76 658.54 371.89 652.67 368.51 649.68 366.79 644.55 366.14 641.25 366.11Q632.7 366.04 579.11 366.05 525.51 366.06 516.97 366.13C513.66 366.16 508.53 366.81 505.55 368.54 499.68 371.92 497.41 378.79 500.42 384.9Q502.69 389.53 508.14 391.69A.54.38 46.2 0 0 508.34 391.73Q509.91 391.72 579.11 391.7ZM663.9 603.4C663.17 602.83 663.17 601.46 662.53 600.41Q654.16 586.65 648.74 576.54C639.46 559.21 632.25 542.91 632.22 523.51Q632.08 437.72 632.22 416.6A.3.29.9 0 0 631.92 416.3L529.44 416.3A.55.55 0 0 0 528.89 416.85Q528.87 500.52 528.9 513.23C528.95 531.08 527.4 545.8 520.69 560.77Q518.31 566.07 507.99 584.09 503.78 591.45 482.28 629.19A.46.46 0 0 0 482.62 629.88Q483.55 630 484.7 630.74A2.35 2.33-30.1 0 0 486.08 631.1Q491.01 630.78 495.41 631.99A5.48 5.44 53.9 0 0 496.59 632.18Q527.14 633.72 554.77 622.8C562.63 619.7 573.2 614.02 580.56 611.07Q593.73 605.8 607.79 603.63 614.16 602.64 614.83 602.4A3.26 3.2-54.4 0 1 615.92 602.21L654.82 602.21A1.16 1.13 65.7 0 1 655.59 602.51Q657.38 604.2 656.73 603.85A.41.41 0 0 1 656.97 603.09L663.69 603.9A.28.28 0 0 0 663.9 603.4Z" data-c-fill="ffb416"/><path fill="#ffb416" d="M 159.69 676.73 Q 159.33 676.61 159.36 677.26 A 1.00 0.97 -66.6 0 0 159.57 677.81 Q 173.90 696.27 188.33 709.68 Q 190.57 711.77 209.95 729.30 Q 220.89 739.19 233.60 754.40 Q 241.53 763.89 249.61 776.72 Q 249.80 777.02 254.24 785.20 Q 256.81 789.93 260.15 793.28 Q 262.72 798.81 264.50 804.05 C 264.96 805.39 266.39 807.80 266.18 809.00 A 1.09 1.08 -61.2 0 0 266.44 809.91 Q 266.95 810.48 267.22 811.51 Q 269.14 818.62 269.88 823.00 C 270.27 825.34 270.21 827.23 270.64 829.10 Q 271.17 831.40 271.27 833.64 Q 271.58 841.06 270.41 848.01 Q 269.14 848.33 268.05 847.70 Q 239.82 831.34 211.67 814.86 Q 210.69 814.28 209.44 812.49 L 209.98 811.83 A 0.83 0.81 27.7 0 1 210.84 811.57 L 237.99 819.43 A 0.99 0.98 25.1 0 0 239.08 819.04 Q 239.41 818.55 239.64 818.56 Q 240.25 818.58 240.50 818.75 Q 241.20 819.21 241.23 819.21 A 0.54 0.54 0.0 0 0 241.72 818.51 Q 238.67 808.98 235.33 802.15 Q 233.79 798.99 227.15 786.96 A 5.46 5.11 -84.0 0 0 226.28 785.81 Q 224.84 784.38 223.93 782.41 A 5.02 4.79 -77.4 0 0 223.40 781.53 Q 218.93 775.69 214.60 770.08 Q 214.19 769.55 212.54 767.73 Q 211.15 766.19 210.81 764.34 Q 210.59 764.01 210.62 763.60 A 0.70 0.66 -66.2 0 0 210.45 763.12 Q 201.29 752.92 195.23 747.27 C 190.70 743.05 184.58 737.35 179.60 733.02 Q 167.67 722.64 156.06 709.94 Q 140.31 692.71 128.52 672.27 C 127.54 670.57 127.32 669.06 126.19 667.53 Q 125.69 666.84 124.39 663.98 Q 122.71 660.29 120.34 654.63 Q 119.97 653.75 118.09 652.62 Q 118.49 652.32 118.19 651.77 Q 117.03 649.68 116.38 646.24 A 8.29 7.42 -64.4 0 0 115.98 644.87 Q 114.82 641.91 114.38 638.25 Q 114.28 637.43 113.83 637.11 A 0.54 0.54 0.0 0 1 113.73 636.32 Q 114.33 635.60 113.56 634.77 A 1.34 1.32 37.0 0 1 113.34 633.27 Q 114.53 630.86 113.45 629.05 A 0.93 0.92 47.4 0 1 113.49 628.04 Q 113.62 627.86 113.28 625.91 C 112.90 623.75 113.12 621.46 113.15 616.85 Q 113.16 615.69 113.40 615.13 Q 113.71 614.38 113.22 613.86 A 0.60 0.58 -58.8 0 1 113.09 613.30 L 114.07 609.90 A 0.62 0.59 -54.7 0 0 113.99 609.37 Q 113.85 609.15 113.82 609.10 A 1.20 1.17 -53.9 0 1 113.68 608.15 Q 114.45 605.43 115.01 602.73 Q 115.82 598.85 116.26 597.37 Q 117.34 593.73 118.35 590.29 Q 121.47 579.65 128.59 569.80 C 131.95 565.16 134.91 561.24 138.07 557.95 C 154.79 540.59 176.73 528.15 199.70 520.99 C 208.13 518.37 216.52 521.25 217.77 530.76 C 218.06 532.99 217.15 537.29 216.68 538.69 C 215.44 542.45 211.37 544.26 207.09 546.07 C 200.76 548.73 193.93 550.93 188.12 553.97 C 176.90 559.86 166.89 566.08 157.91 574.41 C 155.42 576.73 154.22 578.44 151.89 581.36 Q 142.58 593.00 139.78 607.56 A 0.56 0.26 70.1 0 0 139.77 607.67 L 139.31 621.48 A 1.00 0.99 9.4 0 0 140.03 622.47 L 260.92 657.51 A 2.74 2.59 -14.0 0 1 262.00 658.12 L 266.18 661.99 A 1.11 1.03 -79.7 0 1 266.48 662.46 L 267.79 666.52 A 0.39 0.38 61.1 0 1 267.67 666.95 Q 267.14 667.37 267.49 667.87 Q 267.78 668.27 267.74 668.69 Q 267.08 675.72 261.66 679.85 A 2.50 2.47 -69.8 0 1 260.68 680.31 Q 258.47 680.80 257.68 681.40 A 0.65 0.63 47.9 0 1 256.85 681.35 Q 256.09 680.61 255.27 681.26 A 1.45 1.43 -55.8 0 1 253.99 681.51 Q 199.67 665.67 190.75 663.19 Q 190.23 663.05 189.73 663.45 A 0.50 0.50 0.0 0 1 189.29 663.53 L 145.86 650.94 A 0.25 0.25 0.0 0 0 145.59 651.32 Q 146.90 653.22 147.54 655.51 C 148.14 657.68 149.68 658.86 149.92 660.64 Q 150.01 661.28 150.97 662.65 Q 153.53 666.32 155.90 670.07 Q 156.13 670.42 157.80 672.76 Q 159.08 674.53 159.69 676.73 Z" data-c-fill="ffb416"/><path fill="#6477c2" d="M118.09 652.62Q119.97 653.75 120.34 654.63 122.71 660.29 124.39 663.98 125.69 666.84 126.19 667.53C127.32 669.06 127.54 670.57 128.52 672.27Q140.31 692.71 156.06 709.94 167.67 722.64 179.6 733.02C184.58 737.35 190.7 743.05 195.23 747.27Q201.29 752.92 210.45 763.12A.7.66-66.2 0 1 210.62 763.6Q210.59 764.01 210.81 764.34L157.05 733.37Q151.51 729.27 145.86 727.01 119.37 711.63 93.48 696.68 86.49 692.65 84.61 690.05 80.61 684.51 81.38 677 81.72 673.66 85.08 668.38 85.21 668.17 89.84 660.15C92.29 655.91 93.99 652.8 98.5 650.42Q99.92 649.67 102.42 649.02 108.84 647.34 114.55 650.73 116.37 651.81 118.09 652.62ZM159.69 676.73 225.82 715.11Q235.53 722.18 245 727.03 246.67 727.88 248.83 728.34L360.04 792.83Q367.46 798.41 377.15 803.6 379.88 805.06 382.1 805.57 418.15 826.43 454.33 847.4C456.98 848.94 460.37 852.01 461.6 855.06Q463.5 859.79 463.18 864.59 462.99 867.48 459.57 873.41 455.65 880.21 451.51 887.07 446.4 890.73 443.38 891.9 439.95 893.23 435.94 892.67 433.25 892.3 428.9 890.03 422.12 886.51 415.31 883.32L395 871.49C383.04 863.18 372.68 857.39 356.61 848.15Q355.04 847.25 353.7 847.11L260.15 793.28Q256.81 789.93 254.24 785.2 249.8 777.02 249.61 776.72 241.53 763.89 233.6 754.4 220.89 739.19 209.95 729.3 190.57 711.77 188.33 709.68 173.9 696.27 159.57 677.81A1 .97-66.6 0 1 159.36 677.26Q159.33 676.61 159.69 676.73Z" data-c-fill="6477c2"/><path fill="#ffb416" d="M 609.42 680.41 C 630.00 679.81 649.70 694.34 652.08 715.44 Q 653.07 724.28 652.15 730.04 C 649.71 745.22 637.78 759.20 622.70 762.85 Q 619.16 763.71 611.86 763.92 Q 604.55 764.14 600.96 763.49 C 585.70 760.72 572.98 747.45 569.66 732.44 Q 568.40 726.75 568.88 717.87 C 570.02 696.66 588.84 681.01 609.42 680.41 Z M 621.8785 709.6660 A 15.69 15.69 0.0 0 0 599.6922 709.3175 L 597.7676 711.1826 A 15.69 15.69 0.0 0 0 597.4191 733.3688 L 599.3815 735.3940 A 15.69 15.69 0.0 0 0 621.5678 735.7425 L 623.4924 733.8774 A 15.69 15.69 0.0 0 0 623.8409 711.6912 L 621.8785 709.6660 Z" data-c-fill="ffb416"/><path fill="#6477c2" d="M 727.71 714.24 Q 717.62 711.15 714.69 701.40 A 6.31 6.16 -54.2 0 1 714.44 699.72 L 714.35 690.99 Q 715.34 691.14 715.81 691.96 Q 721.75 702.18 727.43 712.54 A 1.85 1.72 -63.6 0 1 727.65 713.28 L 727.71 714.24 Z" data-c-fill="6477c2"/><path fill="#ffb416" d="M536.99 723.18Q536.76 723.84 536.77 726.65A2.77 2.75-28.2 0 1 536.3 728.19L533.86 731.82A1.75 1.74 4.4 0 1 533.11 732.46Q528.37 734.67 527.24 734.82 522.82 735.43 518.34 732.6 513.75 729.7 513.36 723.95 512.84 716.29 518.49 711.88 519.14 711.38 521.2 711.03 524 710.57 529.06 710.84A1.18 1.16 68 0 1 529.82 711.17Q530.36 711.71 531.24 711.71A1.68 1.68 0 0 1 532.39 712.19L536.3 716.1A1.37 1.33-69.9 0 1 536.69 716.98L537 723.09A.15.12 57.4 0 1 536.99 723.18ZM157.05 733.37 158.53 739.51A1.18 1.07-45.8 0 1 158.51 740.1Q157.63 742.95 156.49 746.95 156.1 748.31 152.58 751.39A1.77 1.72-67.1 0 1 151.54 751.83C150.09 751.95 148.91 753.12 147.23 753.58Q142.24 754.94 137.61 757.41A3.07 3.01-63 0 1 136.66 757.73Q135.14 758 133.61 759.03 132.39 759.84 130.15 760.51 127.1 761.43 124.77 763.2 121.83 762.63 120.39 761.86 109.49 756 99.59 748.79 100.99 746.64 103.16 746.03A1.03 1.01 18.8 0 0 103.49 745.87L109.13 741.94A4.02 3.99 16.6 0 1 110.01 741.47Q115.52 739.42 119.47 736.86A4.21 4 18.2 0 1 120.46 736.39Q122.89 735.58 125.08 734.04 125.47 733.77 128.21 733.04 131.47 732.19 131.73 731.99 133.38 730.74 138.03 729.1 141.07 728.02 145.86 727.01 151.51 729.27 157.05 733.37Z" data-c-fill="ffb416"/><circle fill="#ffb416" cx="695.81" cy="742.7" r="12.33" data-c-fill="ffb416"/><path fill="#ffb416" d="M512.17 787.52A42.26 42.26 0 0 1 469.91 829.78 42.26 42.26 0 0 1 427.65 787.52 42.26 42.26 0 0 1 469.91 745.26 42.26 42.26 0 0 1 512.17 787.52ZM452.33 787.48Q452.33 788.22 452.35 789.45A3.33 3.31-57.6 0 0 452.63 790.73Q456.11 798.49 457.96 800.23 459.75 801.89 465.39 804.86A2.51 2.44 57.9 0 0 466.53 805.14L473.31 805.14A.77.75 31.4 0 0 473.65 805.06L479.42 802.37A.85.64 8 0 0 479.6 802.27Q484.54 798.4 486.88 792.17A3.53 3.27-33.7 0 0 487.09 791.27Q487.26 789.63 487.27 787.67 487.28 785.7 487.13 784.06A3.53 3.27 34.3 0 0 486.93 783.16Q484.66 776.9 479.76 772.98A.85.64-7.4 0 0 479.58 772.88L473.84 770.13A.77.75-30.7 0 0 473.5 770.04L466.72 769.97A2.51 2.44-57.3 0 0 465.58 770.24Q459.91 773.15 458.1 774.79 456.23 776.51 452.67 784.23A3.33 3.31 58.2 0 0 452.37 785.5Q452.33 786.73 452.33 787.48ZM676.26 797.05 673.19 799.98A1.89 1.63 4.2 0 1 672.88 800.21Q651.36 812.81 629.83 825.35 628 826.41 626.2 826.33 625.97 825.36 625.83 824.08 625.66 822.58 627.11 820.88 628.61 819.11 629.18 816.9A2.68 2.41-23.5 0 1 629.55 816.09Q635.47 807.4 644.08 801.52A2.16 1.96-68.3 0 1 644.61 801.26Q646.97 800.49 648.89 799.15A2.32 2.27 20.5 0 1 649.68 798.8C651.51 798.35 652.75 797.37 654.72 797.5Q656.01 797.59 656.69 796.72A1.45 1.44 16.9 0 1 657.75 796.16Q666.95 795.59 676.26 797.05ZM570.55 816.25Q572.85 816.25 575.13 816.3A1.51 1.51 0 0 1 576.03 816.61Q577.68 817.86 579.12 819.3 580.55 820.75 581.79 822.4A1.51 1.51 0 0 1 582.1 823.3Q582.14 825.58 582.13 827.88 582.13 830.18 582.08 832.46A1.51 1.51 0 0 1 581.77 833.37Q580.52 835.01 579.08 836.45 577.64 837.89 575.98 839.13A1.51 1.51 0 0 1 575.08 839.44Q572.8 839.47 570.5 839.47 568.2 839.46 565.92 839.42A1.51 1.51 0 0 1 565.02 839.11Q563.37 837.86 561.93 836.41 560.49 834.97 559.25 833.32A1.51 1.51 0 0 1 558.94 832.41Q558.91 830.13 558.91 827.83 558.92 825.53 558.96 823.25A1.51 1.51 0 0 1 559.28 822.35Q560.52 820.7 561.97 819.27 563.41 817.83 565.06 816.59A1.51 1.51 0 0 1 565.97 816.28Q568.25 816.24 570.55 816.25Z" data-c-fill="ffb416"/><circle fill="#ffb416" cx="486.59" cy="854.07" r="12.32" data-c-fill="ffb416"/><path fill="#ffb416" d="M 395.00 871.49 L 400.19 876.13 A 2.89 2.69 75.7 0 0 400.89 876.58 C 403.94 877.99 406.73 880.00 409.83 881.27 Q 412.52 882.37 415.31 883.32 Q 422.12 886.51 428.90 890.03 Q 433.25 892.30 435.94 892.67 Q 439.95 893.23 443.38 891.90 Q 446.40 890.73 451.51 887.07 L 521.61 887.19 Q 521.10 888.57 520.59 888.87 Q 503.92 898.57 487.24 908.27 Q 485.01 909.56 483.41 909.34 Q 452.37 909.07 422.36 909.12 Q 413.86 909.14 409.26 907.96 Q 401.41 905.95 394.70 902.30 Q 370.54 889.15 358.98 863.82 Q 357.14 859.79 355.20 855.23 A 12.69 12.68 -54.8 0 1 354.22 849.56 Q 354.24 849.26 353.70 847.11 Q 355.04 847.25 356.61 848.15 C 372.68 857.39 383.04 863.18 395.00 871.49 Z" data-c-fill="ffb416"/></svg>